#!OML:ASF H:\Dans Jumps\Project 1\Capture day 1\Session 1\subject.ASF
:FULLY-SPECIFIED
:DEGREES
257
root 0.152667 12.3031 -17.338 23.8977 -1.41704 -1.43617
lowerback 38.9519 1.25087 -0.919565
upperback 12.4363 1.37073 2.56925
thorax -5.2727 0.511662 2.68672
lowerneck -18.4111 0.771335 -0.580023
upperneck 0.324534 1.36364 -3.34164
head 3.39519 0.512011 -0.89987
rclavicle -1.33186e-014 -2.88238e-015
rhumerus -34.9178 -1.57087 -79.7275
rradius 35.6201
rwrist 16.464
rhand -18.0489 -22.3244
rfingers 7.12502
rthumb 8.2231 -52.1444
lclavicle -1.33186e-014 -2.88238e-015
lhumerus -35.3039 -10.9564 92.2499
lradius 26.7312
lwrist 32.028
lhand -29.8762 -6.7832
lfingers 7.12502
lthumb -3.19791 23.1726
rfemur -93.3325 -3.95106 22.2029
rtibia 98.8271
rfoot -28.0889 -5.06043
rtoes -0.827346
lfemur -92.9698 8.19651 -24.5976
ltibia 98.584
lfoot -26.3952 11.6258
ltoes -2.94909
258
root 0.150841 12.284 -17.3402 23.8285 -1.42022 -1.48913
lowerback 39.2051 1.26237 -0.905588
upperback 12.3802 1.38994 2.58034
thorax -5.41551 0.520674 2.68177
lowerneck -18.4805 0.777496 -0.574628
upperneck 0.270979 1.37026 -3.343
head 3.3894 0.515453 -0.900573
rclavicle -1.78906e-015 -1.16289e-014
rhumerus -35.136 -1.7227 -79.5956
rradius 35.5169
rwrist 16.5335
rhand -17.9775 -22.2443
rfingers 7.12502
rthumb 8.29204 -52.0616
lclavicle -1.78906e-015 -1.16289e-014
lhumerus -35.6246 -10.8793 92.2804
lradius 26.5868
lwrist 31.9457
lhand -30.1734 -7.16953
lfingers 7.12502
lthumb -3.4849 22.7817
rfemur -93.3866 -3.93745 22.2823
rtibia 99.0003
rfoot -28.1503 -5.07171
rtoes -0.792684
lfemur -93.0434 8.24201 -24.54
ltibia 98.7885
lfoot -26.461 11.6581
ltoes -2.951
259
root 0.148806 12.265 -17.3424 23.7554 -1.4152 -1.54337
lowerback 39.4702 1.2712 -0.888443
upperback 12.3217 1.40762 2.59487
thorax -5.56411 0.528894 2.67926
lowerneck -18.5515 0.785531 -0.571128
upperneck 0.213554 1.37985 -3.34651
head 3.38257 0.520307 -0.901383
rclavicle -2.98177e-015 -1.08338e-014
rhumerus -35.3645 -1.86911 -79.4621
rradius 35.4307
rwrist 16.5964
rhand -17.911 -22.159
rfingers 7.12502
rthumb 8.35622 -51.9737
lclavicle -2.98177e-015 -1.08338e-014
lhumerus -35.9488 -10.7885 92.3105
lradius 26.4344
lwrist 31.8599
lhand -30.346 -7.44887
lfingers 7.12502
lthumb -3.6516 22.4996
rfemur -93.4345 -3.9283 22.3671
rtibia 99.173
rfoot -28.2197 -5.09077
rtoes -0.754438
lfemur -93.1124 8.28574 -24.4799
ltibia 98.9922
lfoot -26.529 11.6964
ltoes -2.96244
260
root 0.146731 12.246 -17.3445 23.6749 -1.4089 -1.60398
lowerback 39.7518 1.28066 -0.867182
upperback 12.2612 1.42787 2.61218
thorax -5.71973 0.538191 2.67645
lowerneck -18.6288 0.794476 -0.568103
upperneck 0.157272 1.39106 -3.35285
head 3.37738 0.52576 -0.902932
rclavicle 1.03368e-014 1.56046e-014
rhumerus -35.6033 -2.01119 -79.3277
rradius 35.3611
rwrist 16.6653
rhand -17.8503 -22.0921
rfingers 7.12502
rthumb 8.41476 -51.9045
lclavicle 1.03368e-014 1.56046e-014
lhumerus -36.2689 -10.6691 92.3362
lradius 26.2647
lwrist 31.7479
lhand -30.3827 -7.56599
lfingers 7.12502
lthumb -3.68707 22.3819
rfemur -93.4707 -3.91535 22.4583
rtibia 99.3439
rfoot -28.2962 -5.12195
rtoes -0.717359
lfemur -93.1731 8.33589 -24.4144
ltibia 99.196
lfoot -26.6013 11.7427
ltoes -2.96678
261
root 0.144644 12.2274 -17.3464 23.5826 -1.40181 -1.66494
lowerback 40.0575 1.29117 -0.847432
upperback 12.1973 1.44926 2.63249
thorax -5.88597 0.5478 2.67695
lowerneck -18.7094 0.804081 -0.568751
upperneck 0.0999238 1.40402 -3.35976
head 3.37242 0.532028 -0.90385
rclavicle -1.94809e-014 -2.10712e-014
rhumerus -35.8512 -2.14533 -79.1923
rradius 35.3024
rwrist 16.7393
rhand -17.7996 -22.0532
rfingers 7.12502
rthumb 8.46377 -51.8636
lclavicle -1.94809e-014 -2.10712e-014
lhumerus -36.5964 -10.5307 92.3609
lradius 26.0944
lwrist 31.6167
lhand -30.26 -7.49472
lfingers 7.12502
lthumb -3.5685 22.4552
rfemur -93.4911 -3.90242 22.5499
rtibia 99.5133
rfoot -28.3796 -5.16572
rtoes -0.693472
lfemur -93.2185 8.38998 -24.3495
ltibia 99.3985
lfoot -26.6766 11.8029
ltoes -2.97341
262
root 0.142346 12.2082 -17.3489 23.4914 -1.38662 -1.72485
lowerback 40.3782 1.29919 -0.825055
upperback 12.1261 1.46932 2.655
thorax -6.06419 0.556802 2.6788
lowerneck -18.7945 0.814226 -0.569168
upperneck 0.0461555 1.41794 -3.36823
head 3.36964 0.538602 -0.905268
rclavicle -4.77083e-015 -4.96962e-016
rhumerus -36.1099 -2.27301 -79.0589
rradius 35.2525
rwrist 16.805
rhand -17.774 -22.0413
rfingers 7.12502
rthumb 8.48841 -51.8507
lclavicle -4.77083e-015 -4.96962e-016
lhumerus -36.9303 -10.3697 92.382
lradius 25.9145
lwrist 31.4571
lhand -30.1764 -7.44648
lfingers 7.12502
lthumb -3.48783 22.5047
rfemur -93.5169 -3.89303 22.6436
rtibia 99.6855
rfoot -28.4652 -5.22386
rtoes -0.677008
lfemur -93.2709 8.44154 -24.2859
ltibia 99.6024
lfoot -26.7512 11.8723
ltoes -2.97677
263
root 0.140073 12.1887 -17.3515 23.3957 -1.37254 -1.78629
lowerback 40.7179 1.30766 -0.802988
upperback 12.0495 1.49014 2.6786
thorax -6.2534 0.566042 2.68151
lowerneck -18.881 0.824526 -0.573433
upperneck -0.00909188 1.43275 -3.37429
head 3.3665 0.545733 -0.905089
rclavicle -1.59028e-015 -7.35503e-015
rhumerus -36.3753 -2.3901 -78.9283
rradius 35.2078
rwrist 16.8631
rhand -17.7714 -22.0617
rfingers 7.12502
rthumb 8.49091 -51.871
lclavicle -1.59028e-015 -7.35503e-015
lhumerus -37.2724 -10.1729 92.3977
lradius 25.7304
lwrist 31.2602
lhand -30.1342 -7.43049
lfingers 7.12502
lthumb -3.44705 22.5214
rfemur -93.5392 -3.87953 22.7365
rtibia 99.8596
rfoot -28.5529 -5.29659
rtoes -0.668579
lfemur -93.3217 8.49917 -24.2244
ltibia 99.8086
lfoot -26.8317 11.9546
ltoes -2.9843
264
root 0.137657 12.1685 -17.3548 23.3061 -1.35358 -1.8443
lowerback 41.0674 1.31332 -0.781934
upperback 11.966 1.50778 2.70272
thorax -6.45228 0.573805 2.68647
lowerneck -18.9719 0.835459 -0.578587
upperneck -0.0620446 1.4487 -3.37952
head 3.36499 0.5534 -0.904378
rclavicle -1.2921e-014 1.75924e-014
rhumerus -36.6445 -2.50201 -78.7979
rradius 35.1651
rwrist 16.9273
rhand -17.7701 -22.1125
rfingers 7.12502
rthumb 8.4922 -51.9218
lclavicle -1.2921e-014 1.75924e-014
lhumerus -37.6229 -9.9543 92.408
lradius 25.5412
lwrist 31.0478
lhand -30.1549 -7.47113
lfingers 7.12502
lthumb -3.46705 22.4804
rfemur -93.5769 -3.86798 22.827
rtibia 100.04
rfoot -28.6393 -5.38132
rtoes -0.664717
lfemur -93.3865 8.55151 -24.1662
ltibia 100.019
lfoot -26.9151 12.0501
ltoes -3.00949
265
root 0.135136 12.1471 -17.3588 23.2249 -1.32772 -1.89641
lowerback 41.4244 1.31476 -0.760945
upperback 11.8749 1.52097 2.7268
thorax -6.66063 0.579582 2.69315
lowerneck -19.0628 0.847111 -0.582896
upperneck -0.116833 1.46544 -3.38609
head 3.36286 0.561428 -0.904187
rclavicle -1.17283e-014 -3.08116e-015
rhumerus -36.9209 -2.60772 -78.6682
rradius 35.1286
rwrist 16.9693
rhand -17.7996 -22.157
rfingers 7.12502
rthumb 8.46372 -51.9674
lclavicle -1.17283e-014 -3.08116e-015
lhumerus -37.9847 -9.72503 92.412
lradius 25.3459
lwrist 30.8371
lhand -30.107 -7.47745
lfingers 7.12502
lthumb -3.42077 22.4748
rfemur -93.6347 -3.86119 22.9139
rtibia 100.229
rfoot -28.7211 -5.4878
rtoes -0.675479
lfemur -93.4696 8.5953 -24.1138
ltibia 100.234
lfoot -27.006 12.1551
ltoes -3.0659
266
root 0.132583 12.125 -17.363 23.1415 -1.29857 -1.94692
lowerback 41.7984 1.31387 -0.737729
upperback 11.7802 1.53259 2.75069
thorax -6.87697 0.584603 2.69907
lowerneck -19.1612 0.85939 -0.583667
upperneck -0.171009 1.48258 -3.39615
head 3.36244 0.569413 -0.905782
rclavicle -1.05356e-014 -1.63997e-014
rhumerus -37.1999 -2.71223 -78.538
rradius 35.0957
rwrist 16.9991
rhand -17.8378 -22.2018
rfingers 7.12502
rthumb 8.42689 -52.0137
lclavicle -1.05356e-014 -1.63997e-014
lhumerus -38.3454 -9.48287 92.4069
lradius 25.1319
lwrist 30.6315
lhand -30.0596 -7.53065
lfingers 7.12502
lthumb -3.37499 22.4224
rfemur -93.6952 -3.85425 22.9985
rtibia 100.425
rfoot -28.7996 -5.62722
rtoes -0.704169
lfemur -93.5542 8.63589 -24.0609
ltibia 100.454
lfoot -27.113 12.2625
ltoes -3.14166
267
root 0.129954 12.1024 -17.3675 23.0576 -1.26794 -1.99348
lowerback 42.1888 1.31232 -0.717224
upperback 11.6815 1.54285 2.77509
thorax -7.1015 0.588889 2.70748
lowerneck -19.2638 0.872499 -0.584555
upperneck -0.228976 1.50096 -3.40895
head 3.36151 0.577899 -0.908154
rclavicle 2.78299e-015 2.18663e-015
rhumerus -37.48 -2.81443 -78.4058
rradius 35.0672
rwrist 17.0171
rhand -17.8776 -22.2412
rfingers 7.12502
rthumb 8.38848 -52.0546
lclavicle 2.78299e-015 2.18663e-015
lhumerus -38.7034 -9.22052 92.3871
lradius 24.9014
lwrist 30.4223
lhand -29.981 -7.5905
lfingers 7.12502
lthumb -3.29908 22.3637
rfemur -93.7607 -3.84625 23.078
rtibia 100.626
rfoot -28.8744 -5.80251
rtoes -0.745567
lfemur -93.6429 8.67402 -24.0122
ltibia 100.677
lfoot -27.2316 12.3709
ltoes -3.25012
268
root 0.127378 12.0793 -17.3722 22.9697 -1.23476 -2.04051
lowerback 42.6012 1.30796 -0.699262
upperback 11.581 1.54965 2.80442
thorax -7.33327 0.591258 2.7239
lowerneck -19.3796 0.887262 -0.59956
upperneck -0.290617 1.52481 -3.42074
head 3.36162 0.589055 -0.907122
rclavicle -1.98785e-016 -3.67752e-015
rhumerus -37.7536 -2.90026 -78.2691
rradius 35.0429
rwrist 17.0224
rhand -17.9166 -22.2802
rfingers 7.12502
rthumb 8.35086 -52.0951
lclavicle -1.98785e-016 -3.67752e-015
lhumerus -39.0563 -8.92986 92.3516
lradius 24.669
lwrist 30.2237
lhand -29.8306 -7.58097
lfingers 7.12502
lthumb -3.15383 22.3755
rfemur -93.8241 -3.83493 23.1547
rtibia 100.833
rfoot -28.9511 -6.00823
rtoes -0.790166
lfemur -93.7313 8.7115 -23.9629
ltibia 100.903
lfoot -27.3616 12.4737
ltoes -3.37544
269
root 0.124741 12.0561 -17.3768 22.8706 -1.1999 -2.0789
lowerback 43.0451 1.30233 -0.69531
upperback 11.4776 1.55058 2.84061
thorax -7.57635 0.590503 2.75732
lowerneck -19.5044 0.904019 -0.633364
upperneck -0.357928 1.55563 -3.43261
head 3.36125 0.603637 -0.902053
rclavicle -4.57205e-015 -1.38155e-014
rhumerus -38.0226 -2.96664 -78.1229
rradius 35.0194
rwrist 17.0257
rhand -17.9426 -22.3091
rfingers 7.12502
rthumb 8.32569 -52.125
lclavicle -4.57205e-015 -1.38155e-014
lhumerus -39.4177 -8.61253 92.3077
lradius 24.452
lwrist 30.041
lhand -29.5959 -7.48386
lfingers 7.12502
lthumb -2.9272 22.4758
rfemur -93.8749 -3.82458 23.2185
rtibia 101.044
rfoot -29.0385 -6.23407
rtoes -0.824593
lfemur -93.8062 8.74694 -23.9231
ltibia 101.128
lfoot -27.496 12.5756
ltoes -3.52613
270
root 0.121572 12.033 -17.3814 22.7628 -1.15025 -2.10659
lowerback 43.5227 1.29133 -0.699879
upperback 11.3673 1.54336 2.88493
thorax -7.83518 0.585818 2.80735
lowerneck -19.6347 0.920962 -0.68397
upperneck -0.430155 1.59046 -3.44252
head 3.35991 0.620304 -0.892881
rclavicle 1.39149e-015 1.98785e-016
rhumerus -38.2935 -3.01886 -77.9687
rradius 34.9976
rwrist 17.023
rhand -17.9596 -22.3247
rfingers 7.12502
rthumb 8.30932 -52.1413
lclavicle 1.39149e-015 1.98785e-016
lhumerus -39.8003 -8.29643 92.2678
lradius 24.255
lwrist 29.8867
lhand -29.3505 -7.37139
lfingers 7.12502
lthumb -2.69022 22.5914
rfemur -93.9137 -3.82214 23.2728
rtibia 101.263
rfoot -29.1439 -6.47493
rtoes -0.843246
lfemur -93.8699 8.77329 -23.8907
ltibia 101.35
lfoot -27.6306 12.6732
ltoes -3.70391
